<svg xmlns="http://www.w3.org/2000/svg" xmlns:xlink="http://www.w3.org/1999/xlink" width="1080" zoomAndPan="magnify" viewBox="0 0 810 809.999993" height="1080" preserveAspectRatio="xMidYMid meet" version="1.0"><defs><clipPath id="d80f861d4a"><path d="M 200 259 L 611.261719 259 L 611.261719 652.636719 L 200 652.636719 Z M 200 259 " clip-rule="nonzero"/></clipPath><clipPath id="202461fb2f"><path d="M 302 157.636719 L 510 157.636719 L 510 343 L 302 343 Z M 302 157.636719 " clip-rule="nonzero"/></clipPath></defs><rect x="-81" width="972" fill="#ffffff" y="-80.999999" height="971.999992" fill-opacity="1"/><rect x="-81" width="972" fill="#000000" y="-80.999999" height="971.999992" fill-opacity="1"/><g clip-path="url(#d80f861d4a)"><path fill="#ffffff" d="M 580.800781 652.355469 L 231.269531 652.355469 C 222.78125 652.355469 214.542969 648.816406 208.726562 642.648438 C 202.890625 636.480469 199.804688 628.074219 200.28125 619.589844 L 218.683594 288.394531 C 219.59375 271.9375 233.191406 259.0625 249.667969 259.0625 L 562.398438 259.0625 C 578.875 259.0625 592.476562 271.9375 593.386719 288.394531 L 611.789062 619.589844 C 612.261719 628.074219 609.179688 636.480469 603.34375 642.648438 C 597.503906 648.816406 589.285156 652.355469 580.800781 652.355469 Z M 249.667969 279.765625 C 244.183594 279.765625 239.628906 284.070312 239.339844 289.535156 L 220.9375 620.726562 C 220.792969 623.605469 221.789062 626.335938 223.753906 628.425781 C 225.742188 630.496094 228.390625 631.65625 231.269531 631.65625 L 580.800781 631.65625 C 583.675781 631.65625 586.347656 630.496094 588.3125 628.425781 C 590.28125 626.335938 591.292969 623.605469 591.128906 620.726562 L 572.726562 289.535156 C 572.4375 284.070312 567.882812 279.765625 562.398438 279.765625 Z M 249.667969 279.765625 " fill-opacity="1" fill-rule="nonzero"/></g><g clip-path="url(#202461fb2f)"><path fill="#ffffff" d="M 499.183594 342.359375 C 493.46875 342.359375 488.832031 337.722656 488.832031 332.007812 L 488.832031 260.96875 C 488.832031 215.304688 451.695312 178.171875 406.035156 178.171875 C 360.371094 178.171875 323.234375 215.304688 323.234375 260.96875 L 323.234375 332.007812 C 323.234375 337.722656 318.597656 342.359375 312.886719 342.359375 C 307.171875 342.359375 302.535156 337.722656 302.535156 332.007812 L 302.535156 260.96875 C 302.535156 203.898438 348.964844 157.472656 406.035156 157.472656 C 463.101562 157.472656 509.53125 203.898438 509.53125 260.96875 L 509.53125 332.007812 C 509.53125 337.722656 504.894531 342.359375 499.183594 342.359375 Z M 499.183594 342.359375 " fill-opacity="1" fill-rule="nonzero"/></g></svg>