<svg xmlns="http://www.w3.org/2000/svg" xmlns:xlink="http://www.w3.org/1999/xlink" width="1080" zoomAndPan="magnify" viewBox="0 0 810 809.999993" height="1080" preserveAspectRatio="xMidYMid meet" version="1.0"><defs><clipPath id="44ef5effe4"><path d="M 193 134.851562 L 618 134.851562 L 618 674.851562 L 193 674.851562 Z M 193 134.851562 " clip-rule="nonzero"/></clipPath></defs><rect x="-81" width="972" fill="#ffffff" y="-80.999999" height="971.999992" fill-opacity="1"/><rect x="-81" width="972" fill="#000000" y="-80.999999" height="971.999992" fill-opacity="1"/><g clip-path="url(#44ef5effe4)"><path fill="#ffffff" d="M 251.195312 517.992188 L 193.90625 633.132812 C 193.363281 634.347656 193.089844 635.621094 193.089844 636.949219 C 193.089844 638.28125 193.363281 639.554688 193.90625 640.769531 C 194.464844 641.984375 195.246094 643.03125 196.253906 643.90625 C 197.261719 644.785156 198.402344 645.414062 199.683594 645.800781 C 232.195312 655.292969 265.203125 662.496094 298.710938 667.410156 C 332.222656 672.324219 365.910156 674.902344 399.777344 675.144531 L 404.996094 675.144531 C 439.765625 675.144531 474.363281 672.6875 508.785156 667.773438 C 543.207031 662.859375 577.109375 655.535156 610.492188 645.800781 C 611.769531 645.414062 612.914062 644.785156 613.921875 643.90625 C 614.925781 643.03125 615.710938 641.984375 616.265625 640.769531 C 616.8125 639.554688 617.085938 638.28125 617.085938 636.949219 C 617.085938 635.621094 616.8125 634.347656 616.265625 633.132812 L 558.792969 517.992188 C 543.140625 486.414062 502.898438 462.101562 454.179688 452.785156 C 458.058594 451.28125 461.863281 449.605469 465.589844 447.757812 C 469.320312 445.910156 472.957031 443.898438 476.5 441.722656 C 480.046875 439.546875 483.488281 437.210938 486.824219 434.726562 C 490.15625 432.238281 493.375 429.601562 496.46875 426.824219 C 499.566406 424.046875 502.53125 421.132812 505.363281 418.085938 C 508.199219 415.039062 510.886719 411.867188 513.433594 408.578125 C 515.980469 405.285156 518.375 401.886719 520.613281 398.382812 C 522.851562 394.875 524.925781 391.273438 526.839844 387.578125 C 529.496094 387.953125 532.167969 388.140625 534.851562 388.136719 C 536.578125 388.136719 538.300781 388.050781 540.023438 387.882812 C 541.742188 387.714844 543.449219 387.460938 545.144531 387.125 C 546.839844 386.789062 548.511719 386.367188 550.167969 385.867188 C 551.820312 385.367188 553.445312 384.785156 555.042969 384.125 C 556.640625 383.464844 558.199219 382.726562 559.722656 381.914062 C 561.246094 381.101562 562.730469 380.214844 564.167969 379.253906 C 565.601562 378.296875 566.992188 377.269531 568.328125 376.171875 C 569.664062 375.078125 570.941406 373.921875 572.167969 372.699219 C 573.390625 371.480469 574.550781 370.203125 575.648438 368.867188 C 576.746094 367.53125 577.773438 366.148438 578.734375 364.710938 C 579.695312 363.277344 580.585938 361.796875 581.402344 360.273438 C 582.21875 358.75 582.957031 357.191406 583.621094 355.597656 C 584.285156 354 584.867188 352.375 585.371094 350.722656 C 585.875 349.070312 586.296875 347.398438 586.636719 345.703125 C 586.976562 344.007812 587.234375 342.300781 587.40625 340.582031 C 587.578125 338.863281 587.667969 337.140625 587.667969 335.410156 L 587.667969 313.613281 C 587.6875 311.085938 587.519531 308.570312 587.167969 306.070312 C 586.816406 303.566406 586.285156 301.101562 585.574219 298.679688 C 584.863281 296.253906 583.980469 293.894531 582.921875 291.597656 C 581.867188 289.300781 580.648438 287.097656 579.269531 284.980469 C 577.886719 282.863281 576.363281 280.855469 574.6875 278.964844 C 573.015625 277.070312 571.210938 275.308594 569.28125 273.679688 C 567.351562 272.046875 565.3125 270.566406 563.164062 269.234375 C 561.015625 267.90625 558.78125 266.738281 556.460938 265.734375 C 556.136719 263.476562 555.757812 261.226562 555.328125 258.988281 C 554.902344 256.75 554.421875 254.519531 553.894531 252.300781 C 553.367188 250.085938 552.789062 247.878906 552.164062 245.6875 C 551.539062 243.496094 550.863281 241.316406 550.140625 239.15625 C 549.417969 236.992188 548.644531 234.847656 547.824219 232.71875 C 547.007812 230.59375 546.140625 228.484375 545.226562 226.394531 C 544.3125 224.304688 543.355469 222.238281 542.347656 220.191406 C 541.34375 218.144531 540.292969 216.121094 539.195312 214.125 C 538.101562 212.125 536.960938 210.148438 535.773438 208.203125 C 534.589844 206.253906 533.363281 204.332031 532.09375 202.4375 C 530.824219 200.546875 529.511719 198.679688 528.160156 196.847656 C 526.804688 195.011719 525.410156 193.207031 523.976562 191.433594 C 522.542969 189.660156 521.070312 187.921875 519.558594 186.214844 C 518.046875 184.507812 516.5 182.835938 514.914062 181.199219 C 513.328125 179.558594 511.703125 177.957031 510.046875 176.394531 C 508.390625 174.828125 506.695312 173.300781 504.972656 171.8125 C 503.246094 170.320312 501.488281 168.871094 499.695312 167.460938 C 497.90625 166.046875 496.082031 164.675781 494.230469 163.347656 C 492.378906 162.019531 490.5 160.730469 488.589844 159.484375 C 486.679688 158.238281 484.742188 157.035156 482.78125 155.875 C 480.816406 154.71875 478.828125 153.601562 476.816406 152.53125 C 474.800781 151.460938 472.765625 150.4375 470.707031 149.457031 C 468.648438 148.476562 466.570312 147.542969 464.46875 146.65625 C 462.367188 145.769531 460.25 144.929688 458.109375 144.136719 C 455.972656 143.347656 453.816406 142.601562 451.644531 141.90625 C 449.476562 141.210938 447.289062 140.5625 445.089844 139.964844 C 442.890625 139.367188 440.675781 138.816406 438.453125 138.320312 C 436.226562 137.820312 433.992188 137.371094 431.746094 136.96875 C 429.503906 136.570312 427.25 136.222656 424.992188 135.921875 C 422.730469 135.625 420.464844 135.375 418.191406 135.175781 C 415.921875 134.980469 413.644531 134.832031 411.367188 134.734375 C 409.089844 134.640625 406.8125 134.59375 404.53125 134.601562 C 402.25 134.605469 399.972656 134.664062 397.695312 134.769531 C 395.417969 134.878906 393.144531 135.035156 390.875 135.246094 C 388.601562 135.453125 386.339844 135.710938 384.078125 136.023438 C 381.820312 136.332031 379.570312 136.695312 377.328125 137.105469 C 375.085938 137.515625 372.851562 137.976562 370.628906 138.484375 C 368.40625 138.996094 366.199219 139.554688 364 140.164062 C 361.804688 140.773438 359.621094 141.429688 357.453125 142.136719 C 355.285156 142.84375 353.132812 143.597656 351 144.402344 C 348.867188 145.203125 346.75 146.054688 344.65625 146.949219 C 342.558594 147.847656 340.484375 148.792969 338.429688 149.78125 C 336.375 150.769531 334.34375 151.804688 332.335938 152.886719 C 330.328125 153.96875 328.347656 155.089844 326.386719 156.261719 C 324.429688 157.429688 322.5 158.640625 320.597656 159.898438 C 318.695312 161.152344 316.820312 162.449219 314.972656 163.789062 C 313.128906 165.128906 311.3125 166.507812 309.53125 167.925781 C 307.746094 169.347656 305.996094 170.804688 304.277344 172.304688 C 302.558594 173.800781 300.871094 175.339844 299.222656 176.910156 C 297.574219 178.484375 295.957031 180.09375 294.378906 181.738281 C 292.800781 183.386719 291.261719 185.066406 289.757812 186.78125 C 288.253906 188.496094 286.789062 190.242188 285.367188 192.019531 C 283.941406 193.800781 282.554688 195.613281 281.210938 197.453125 C 279.867188 199.292969 278.566406 201.164062 277.304688 203.066406 C 276.042969 204.964844 274.824219 206.890625 273.652344 208.847656 C 272.476562 210.800781 271.347656 212.78125 270.257812 214.785156 C 269.171875 216.789062 268.132812 218.816406 267.136719 220.867188 C 266.140625 222.917969 265.191406 224.992188 264.289062 227.085938 C 263.386719 229.179688 262.53125 231.292969 261.71875 233.421875 C 260.910156 235.554688 260.152344 237.703125 259.4375 239.871094 C 258.726562 242.035156 258.0625 244.214844 257.445312 246.410156 C 256.832031 248.605469 256.265625 250.816406 255.746094 253.035156 C 255.230469 255.257812 254.765625 257.488281 254.347656 259.730469 C 253.929688 261.96875 253.5625 264.21875 253.246094 266.476562 C 251.0625 267.5625 248.960938 268.789062 246.949219 270.164062 C 244.933594 271.539062 243.027344 273.046875 241.222656 274.6875 C 239.417969 276.328125 237.734375 278.085938 236.175781 279.960938 C 234.617188 281.835938 233.191406 283.808594 231.90625 285.878906 C 230.621094 287.953125 229.484375 290.101562 228.5 292.332031 C 227.511719 294.5625 226.683594 296.847656 226.015625 299.195312 C 225.347656 301.539062 224.84375 303.917969 224.503906 306.332031 C 224.167969 308.75 223.996094 311.175781 223.996094 313.613281 L 223.996094 335.320312 C 223.992188 337.890625 224.179688 340.449219 224.550781 342.992188 C 224.921875 345.539062 225.472656 348.042969 226.210938 350.503906 C 226.945312 352.96875 227.855469 355.367188 228.941406 357.699219 C 230.027344 360.027344 231.277344 362.269531 232.6875 364.417969 C 234.101562 366.566406 235.660156 368.601562 237.371094 370.523438 C 239.078125 372.445312 240.917969 374.234375 242.886719 375.886719 C 244.855469 377.539062 246.933594 379.042969 249.125 380.390625 C 251.3125 381.742188 253.585938 382.925781 255.949219 383.945312 L 255.949219 407.792969 C 255.949219 408.402344 256.007812 409.011719 256.125 409.609375 C 256.246094 410.210938 256.421875 410.792969 256.65625 411.355469 C 256.890625 411.921875 257.179688 412.460938 257.519531 412.96875 C 257.859375 413.476562 258.242188 413.945312 258.675781 414.378906 C 259.109375 414.8125 259.578125 415.199219 260.089844 415.539062 C 260.597656 415.878906 261.132812 416.164062 261.699219 416.398438 C 262.261719 416.632812 262.847656 416.808594 263.445312 416.929688 C 264.046875 417.046875 264.652344 417.109375 265.261719 417.109375 L 303.734375 417.109375 C 310.917969 425.019531 318.917969 431.996094 327.730469 438.039062 C 336.542969 444.082031 345.933594 449.03125 355.902344 452.878906 C 306.996094 462.195312 266.847656 486.414062 251.195312 517.992188 Z M 569.691406 313.613281 L 569.691406 335.320312 C 569.6875 336.457031 569.628906 337.59375 569.515625 338.726562 C 569.398438 339.859375 569.230469 340.984375 569.003906 342.101562 C 568.78125 343.21875 568.5 344.320312 568.167969 345.410156 C 567.835938 346.5 567.449219 347.570312 567.011719 348.621094 C 566.574219 349.675781 566.085938 350.703125 565.546875 351.707031 C 565.007812 352.707031 564.421875 353.683594 563.785156 354.628906 C 563.152344 355.574219 562.472656 356.488281 561.75 357.367188 C 561.023438 358.246094 560.261719 359.089844 559.453125 359.894531 C 558.648438 360.699219 557.804688 361.460938 556.921875 362.183594 C 556.039062 362.902344 555.125 363.582031 554.179688 364.210938 C 553.230469 364.84375 552.253906 365.429688 551.25 365.964844 C 550.242188 366.5 549.214844 366.988281 548.160156 367.421875 C 547.109375 367.855469 546.039062 368.238281 544.949219 368.570312 C 543.855469 368.898438 542.753906 369.175781 541.636719 369.398438 C 540.519531 369.621094 539.394531 369.785156 538.261719 369.898438 C 537.125 370.007812 535.988281 370.066406 534.851562 370.066406 C 536.160156 366.417969 537.308594 362.722656 538.296875 358.976562 C 539.285156 355.230469 540.113281 351.449219 540.773438 347.628906 C 541.4375 343.8125 541.9375 339.976562 542.269531 336.113281 C 542.601562 332.253906 542.769531 328.386719 542.769531 324.511719 C 542.769531 320.636719 542.601562 316.769531 542.269531 312.910156 C 541.9375 309.050781 541.4375 305.210938 540.773438 301.394531 C 540.113281 297.578125 539.285156 293.796875 538.296875 290.050781 C 537.308594 286.304688 536.160156 282.609375 534.851562 278.960938 C 535.988281 278.953125 537.125 279.003906 538.261719 279.109375 C 539.394531 279.214844 540.519531 279.378906 541.636719 279.59375 C 542.753906 279.8125 543.859375 280.082031 544.953125 280.410156 C 546.042969 280.734375 547.117188 281.113281 548.167969 281.542969 C 549.222656 281.976562 550.253906 282.457031 551.257812 282.992188 C 552.265625 283.523438 553.242188 284.105469 554.191406 284.734375 C 555.140625 285.363281 556.058594 286.039062 556.941406 286.757812 C 557.824219 287.480469 558.667969 288.242188 559.476562 289.042969 C 560.28125 289.847656 561.046875 290.6875 561.773438 291.566406 C 562.496094 292.445312 563.175781 293.355469 563.8125 294.304688 C 564.445312 295.25 565.03125 296.222656 565.570312 297.226562 C 566.109375 298.230469 566.597656 299.257812 567.035156 300.308594 C 567.472656 301.359375 567.855469 302.429688 568.1875 303.519531 C 568.519531 304.609375 568.796875 305.714844 569.019531 306.832031 C 569.242188 307.945312 569.410156 309.070312 569.523438 310.207031 C 569.632812 311.339844 569.691406 312.476562 569.691406 313.613281 Z M 404.996094 152.828125 C 409.429688 152.816406 413.851562 153.023438 418.265625 153.449219 C 422.679688 153.875 427.0625 154.519531 431.410156 155.378906 C 435.761719 156.238281 440.058594 157.3125 444.300781 158.597656 C 448.542969 159.882812 452.714844 161.375 456.808594 163.074219 C 460.90625 164.773438 464.90625 166.667969 468.816406 168.765625 C 472.722656 170.859375 476.519531 173.144531 480.199219 175.613281 C 483.878906 178.085938 487.429688 180.734375 490.851562 183.558594 C 494.269531 186.378906 497.539062 189.367188 500.664062 192.511719 C 505.359375 197.171875 509.691406 202.148438 513.660156 207.441406 C 517.625 212.734375 521.1875 218.285156 524.34375 224.101562 C 527.5 229.914062 530.214844 235.925781 532.488281 242.136719 C 534.765625 248.347656 536.578125 254.691406 537.925781 261.167969 L 535.128906 261.167969 C 532.445312 261.164062 529.777344 261.351562 527.117188 261.726562 C 525.683594 258.949219 524.15625 256.222656 522.535156 253.546875 C 520.914062 250.875 519.203125 248.257812 517.40625 245.699219 C 515.605469 243.144531 513.71875 240.648438 511.75 238.222656 C 509.777344 235.792969 507.726562 233.4375 505.59375 231.148438 C 503.464844 228.859375 501.253906 226.648438 498.972656 224.511719 C 496.6875 222.375 494.335938 220.316406 491.910156 218.339844 C 489.488281 216.367188 487 214.476562 484.445312 212.667969 C 481.894531 210.863281 479.28125 209.148438 476.609375 207.519531 C 473.9375 205.894531 471.214844 204.359375 468.441406 202.917969 C 465.664062 201.480469 462.84375 200.132812 459.976562 198.886719 C 457.109375 197.640625 454.199219 196.492188 451.253906 195.441406 C 448.308594 194.394531 445.332031 193.449219 442.320312 192.601562 C 439.308594 191.757812 436.273438 191.015625 433.210938 190.378906 C 430.148438 189.742188 427.070312 189.210938 423.972656 188.785156 C 420.875 188.359375 417.765625 188.039062 414.644531 187.824219 C 411.523438 187.609375 408.402344 187.503906 405.273438 187.503906 C 402.144531 187.503906 399.023438 187.609375 395.902344 187.824219 C 392.78125 188.039062 389.675781 188.359375 386.578125 188.785156 C 383.476562 189.210938 380.398438 189.742188 377.335938 190.378906 C 374.273438 191.015625 371.238281 191.757812 368.226562 192.601562 C 365.21875 193.449219 362.238281 194.394531 359.292969 195.441406 C 356.347656 196.492188 353.441406 197.640625 350.570312 198.886719 C 347.703125 200.132812 344.882812 201.480469 342.105469 202.917969 C 339.332031 204.359375 336.609375 205.894531 333.9375 207.519531 C 331.265625 209.148438 328.65625 210.863281 326.101562 212.667969 C 323.546875 214.476562 321.058594 216.367188 318.636719 218.339844 C 316.210938 220.316406 313.859375 222.375 311.574219 224.511719 C 309.292969 226.648438 307.085938 228.859375 304.953125 231.148438 C 302.820312 233.4375 300.769531 235.792969 298.796875 238.222656 C 296.828125 240.648438 294.941406 243.144531 293.144531 245.699219 C 291.34375 248.257812 289.632812 250.875 288.011719 253.546875 C 286.390625 256.222656 284.863281 258.949219 283.429688 261.726562 C 281.253906 261.585938 279.082031 261.585938 276.90625 261.726562 L 272.53125 261.726562 C 272.902344 259.828125 273.316406 257.9375 273.773438 256.054688 C 274.230469 254.175781 274.722656 252.304688 275.261719 250.445312 C 275.796875 248.582031 276.371094 246.734375 276.988281 244.898438 C 277.601562 243.066406 278.257812 241.242188 278.949219 239.4375 C 279.644531 237.628906 280.378906 235.835938 281.148438 234.0625 C 281.917969 232.285156 282.726562 230.527344 283.574219 228.785156 C 284.421875 227.046875 285.304688 225.324219 286.222656 223.621094 C 287.144531 221.917969 288.101562 220.234375 289.09375 218.574219 C 290.085938 216.914062 291.117188 215.273438 292.179688 213.65625 C 293.242188 212.039062 294.339844 210.445312 295.472656 208.875 C 296.605469 207.304688 297.769531 205.757812 298.96875 204.238281 C 300.167969 202.71875 301.398438 201.222656 302.660156 199.757812 C 303.921875 198.289062 305.214844 196.851562 306.542969 195.4375 C 307.867188 194.027344 309.21875 192.644531 310.605469 191.292969 C 311.988281 189.9375 313.402344 188.617188 314.84375 187.324219 C 316.285156 186.03125 317.753906 184.769531 319.246094 183.539062 C 320.742188 182.3125 322.265625 181.113281 323.8125 179.949219 C 325.359375 178.789062 326.929688 177.65625 328.523438 176.5625 C 330.121094 175.464844 331.738281 174.402344 333.378906 173.375 C 335.019531 172.351562 336.683594 171.359375 338.367188 170.402344 C 340.050781 169.449219 341.753906 168.53125 343.476562 167.648438 C 345.199219 166.765625 346.941406 165.921875 348.703125 165.117188 C 350.460938 164.308594 352.238281 163.539062 354.03125 162.808594 C 355.824219 162.078125 357.628906 161.386719 359.453125 160.734375 C 361.273438 160.082031 363.109375 159.46875 364.960938 158.894531 C 366.808594 158.320312 368.667969 157.789062 370.539062 157.292969 C 372.410156 156.800781 374.292969 156.347656 376.183594 155.933594 C 378.074219 155.519531 379.976562 155.148438 381.882812 154.820312 C 383.789062 154.488281 385.703125 154.199219 387.621094 153.949219 C 389.542969 153.699219 391.46875 153.492188 393.394531 153.328125 C 395.324219 153.160156 397.253906 153.035156 399.191406 152.953125 C 401.125 152.871094 403.058594 152.828125 404.996094 152.828125 Z M 241.976562 335.320312 L 241.976562 313.613281 C 241.980469 311.871094 242.113281 310.136719 242.378906 308.410156 C 242.644531 306.6875 243.039062 304.992188 243.558594 303.328125 C 244.082031 301.664062 244.726562 300.046875 245.492188 298.480469 C 246.257812 296.910156 247.136719 295.410156 248.128906 293.976562 C 249.121094 292.539062 250.214844 291.1875 251.410156 289.917969 C 252.609375 288.648438 253.890625 287.476562 255.265625 286.402344 C 256.640625 285.328125 258.085938 284.359375 259.605469 283.503906 C 261.125 282.644531 262.699219 281.910156 264.332031 281.289062 L 265.261719 281.289062 C 268.738281 279.941406 272.34375 279.230469 276.070312 279.148438 C 274.761719 282.785156 273.613281 286.472656 272.625 290.210938 C 271.632812 293.949219 270.808594 297.722656 270.144531 301.535156 C 269.480469 305.34375 268.980469 309.175781 268.648438 313.027344 C 268.316406 316.878906 268.148438 320.738281 268.148438 324.605469 C 268.148438 328.472656 268.316406 332.332031 268.648438 336.183594 C 268.980469 340.039062 269.480469 343.867188 270.144531 347.679688 C 270.808594 351.488281 271.632812 355.261719 272.625 359 C 273.613281 362.738281 274.761719 366.425781 276.070312 370.066406 C 274.945312 370.046875 273.824219 369.972656 272.703125 369.847656 C 271.585938 369.71875 270.476562 369.539062 269.375 369.300781 C 268.277344 369.066406 267.191406 368.777344 266.117188 368.4375 C 265.046875 368.097656 263.992188 367.703125 262.957031 367.257812 C 261.925781 366.816406 260.914062 366.324219 259.929688 365.78125 C 258.941406 365.238281 257.984375 364.648438 257.054688 364.011719 C 256.128906 363.378906 255.230469 362.699219 254.371094 361.976562 C 253.507812 361.253906 252.679688 360.488281 251.894531 359.6875 C 251.105469 358.882812 250.359375 358.042969 249.652344 357.167969 C 248.945312 356.292969 248.285156 355.382812 247.664062 354.441406 C 247.046875 353.503906 246.476562 352.535156 245.953125 351.539062 C 245.429688 350.542969 244.957031 349.523438 244.53125 348.480469 C 244.105469 347.4375 243.734375 346.378906 243.414062 345.300781 C 243.09375 344.222656 242.824219 343.128906 242.609375 342.023438 C 242.394531 340.917969 242.234375 339.808594 242.128906 338.6875 C 242.023438 337.566406 241.972656 336.445312 241.976562 335.320312 Z M 274.578125 398.757812 L 274.578125 387.949219 L 277.09375 387.949219 C 279.308594 387.933594 281.511719 387.777344 283.707031 387.484375 C 285.648438 391.328125 287.792969 395.050781 290.136719 398.664062 Z M 354.96875 416.734375 C 355.363281 417.558594 355.8125 418.351562 356.316406 419.109375 C 356.820312 419.871094 357.375 420.59375 357.980469 421.273438 C 358.585938 421.957031 359.234375 422.59375 359.929688 423.183594 C 360.625 423.773438 361.359375 424.3125 362.128906 424.800781 C 362.898438 425.289062 363.699219 425.722656 364.53125 426.097656 C 365.363281 426.472656 366.21875 426.789062 367.09375 427.042969 C 367.96875 427.296875 368.859375 427.492188 369.761719 427.621094 C 370.664062 427.75 371.570312 427.816406 372.484375 427.820312 L 391.113281 427.820312 C 391.753906 427.816406 392.390625 427.78125 393.027344 427.71875 C 393.660156 427.652344 394.292969 427.554688 394.917969 427.429688 C 395.542969 427.300781 396.160156 427.144531 396.773438 426.957031 C 397.382812 426.769531 397.984375 426.550781 398.570312 426.304688 C 399.160156 426.058594 399.738281 425.785156 400.300781 425.480469 C 400.863281 425.175781 401.40625 424.847656 401.9375 424.492188 C 402.46875 424.136719 402.980469 423.753906 403.472656 423.347656 C 403.964844 422.941406 404.4375 422.511719 404.886719 422.058594 C 405.335938 421.605469 405.765625 421.132812 406.167969 420.636719 C 406.574219 420.140625 406.953125 419.628906 407.304688 419.097656 C 407.660156 418.566406 407.988281 418.019531 408.289062 417.453125 C 408.585938 416.890625 408.859375 416.3125 409.101562 415.722656 C 409.347656 415.132812 409.5625 414.53125 409.746094 413.921875 C 409.929688 413.308594 410.085938 412.691406 410.210938 412.0625 C 410.335938 411.4375 410.425781 410.804688 410.488281 410.167969 C 410.550781 409.535156 410.582031 408.898438 410.582031 408.257812 L 410.582031 403.132812 C 410.582031 402.496094 410.550781 401.859375 410.488281 401.222656 C 410.425781 400.585938 410.335938 399.957031 410.210938 399.328125 C 410.085938 398.703125 409.929688 398.085938 409.746094 397.472656 C 409.5625 396.859375 409.347656 396.261719 409.101562 395.671875 C 408.859375 395.078125 408.585938 394.503906 408.289062 393.9375 C 407.988281 393.375 407.660156 392.828125 407.304688 392.296875 C 406.953125 391.761719 406.574219 391.25 406.167969 390.753906 C 405.765625 390.261719 405.335938 389.789062 404.886719 389.335938 C 404.4375 388.882812 403.964844 388.453125 403.472656 388.046875 C 402.980469 387.640625 402.46875 387.257812 401.9375 386.902344 C 401.40625 386.546875 400.863281 386.214844 400.300781 385.914062 C 399.738281 385.609375 399.160156 385.335938 398.570312 385.089844 C 397.984375 384.839844 397.382812 384.625 396.773438 384.4375 C 396.160156 384.25 395.542969 384.089844 394.917969 383.964844 C 394.292969 383.835938 393.660156 383.742188 393.027344 383.675781 C 392.390625 383.609375 391.753906 383.574219 391.113281 383.574219 L 372.484375 383.574219 C 371.402344 383.59375 370.328125 383.703125 369.265625 383.902344 C 368.203125 384.101562 367.164062 384.386719 366.148438 384.757812 C 365.132812 385.128906 364.152344 385.582031 363.214844 386.117188 C 362.273438 386.652344 361.382812 387.261719 360.546875 387.945312 C 359.707031 388.628906 358.929688 389.378906 358.214844 390.191406 C 357.503906 391.003906 356.859375 391.871094 356.292969 392.789062 C 355.722656 393.710938 355.234375 394.671875 354.824219 395.671875 C 354.414062 396.671875 354.089844 397.699219 353.851562 398.757812 L 311.839844 398.757812 C 310.277344 396.789062 308.78125 394.777344 307.347656 392.71875 C 305.910156 390.65625 304.542969 388.554688 303.242188 386.40625 C 301.941406 384.261719 300.710938 382.074219 299.546875 379.851562 C 298.382812 377.625 297.292969 375.367188 296.273438 373.074219 C 295.25 370.777344 294.304688 368.453125 293.433594 366.101562 C 292.558594 363.746094 291.761719 361.367188 291.039062 358.964844 C 290.316406 356.5625 289.671875 354.136719 289.101562 351.691406 C 288.53125 349.246094 288.039062 346.785156 287.625 344.308594 C 287.214844 341.832031 286.878906 339.347656 286.621094 336.851562 C 286.367188 334.351562 286.1875 331.847656 286.089844 329.339844 C 285.992188 326.832031 285.972656 324.324219 286.035156 321.8125 C 286.09375 319.304688 286.234375 316.800781 286.453125 314.296875 C 286.675781 311.796875 286.972656 309.304688 287.347656 306.824219 C 287.726562 304.34375 288.179688 301.875 288.714844 299.421875 C 289.246094 296.96875 289.855469 294.535156 290.542969 292.121094 C 291.230469 289.707031 291.992188 287.316406 292.832031 284.949219 C 293.667969 282.582031 294.582031 280.246094 295.566406 277.9375 C 296.554688 275.628906 297.609375 273.351562 298.742188 271.109375 C 299.871094 268.871094 301.070312 266.664062 302.339844 264.5 C 303.609375 262.335938 304.945312 260.210938 306.347656 258.128906 C 307.753906 256.046875 309.222656 254.011719 310.753906 252.023438 C 312.285156 250.035156 313.878906 248.097656 315.535156 246.210938 C 317.191406 244.324219 318.902344 242.488281 320.671875 240.710938 C 322.445312 238.929688 324.269531 237.210938 326.148438 235.546875 C 328.03125 233.882812 329.960938 232.28125 331.941406 230.738281 C 333.921875 229.195312 335.949219 227.71875 338.023438 226.304688 C 340.101562 224.890625 342.21875 223.546875 344.378906 222.265625 C 346.535156 220.988281 348.734375 219.777344 350.972656 218.636719 C 353.207031 217.496094 355.476562 216.429688 357.78125 215.433594 C 360.085938 214.433594 362.417969 213.511719 364.78125 212.664062 C 367.144531 211.8125 369.53125 211.039062 371.941406 210.34375 C 374.355469 209.644531 376.785156 209.023438 379.234375 208.476562 C 381.6875 207.933594 384.152344 207.46875 386.632812 207.078125 C 389.113281 206.691406 391.601562 206.382812 394.101562 206.148438 C 396.601562 205.917969 399.105469 205.769531 401.613281 205.695312 C 404.125 205.621094 406.632812 205.628906 409.140625 205.714844 C 411.652344 205.800781 414.15625 205.96875 416.652344 206.210938 C 419.152344 206.457031 421.640625 206.78125 424.117188 207.183594 C 426.59375 207.585938 429.058594 208.0625 431.503906 208.621094 C 433.953125 209.179688 436.378906 209.816406 438.789062 210.527344 C 441.195312 211.238281 443.578125 212.023438 445.9375 212.886719 C 448.292969 213.75 450.621094 214.683594 452.921875 215.695312 C 455.21875 216.703125 457.484375 217.785156 459.714844 218.9375 C 461.941406 220.089844 464.132812 221.3125 466.289062 222.601562 C 468.441406 223.894531 470.550781 225.25 472.617188 226.675781 C 474.683594 228.101562 476.703125 229.589844 478.675781 231.140625 C 480.648438 232.695312 482.570312 234.308594 484.441406 235.980469 C 486.3125 237.65625 488.128906 239.386719 489.890625 241.175781 C 491.648438 242.964844 493.351562 244.808594 494.996094 246.707031 C 496.640625 248.601562 498.226562 250.546875 499.746094 252.546875 C 501.269531 254.542969 502.726562 256.585938 504.117188 258.675781 C 505.507812 260.761719 506.832031 262.894531 508.089844 265.066406 C 509.347656 267.238281 510.535156 269.449219 511.652344 271.699219 C 512.769531 273.945312 513.816406 276.226562 514.789062 278.539062 C 515.761719 280.855469 516.664062 283.195312 517.488281 285.566406 C 518.3125 287.9375 519.0625 290.332031 519.734375 292.75 C 520.410156 295.167969 521.003906 297.605469 521.523438 300.0625 C 522.042969 302.519531 522.484375 304.988281 522.847656 307.472656 C 523.210938 309.957031 523.496094 312.449219 523.703125 314.953125 C 523.90625 317.453125 524.035156 319.960938 524.082031 322.46875 C 524.128906 324.980469 524.09375 327.488281 523.984375 329.996094 C 523.871094 332.503906 523.679688 335.007812 523.410156 337.5 C 523.140625 339.996094 522.792969 342.480469 522.363281 344.957031 C 521.9375 347.429688 521.433594 349.886719 520.851562 352.328125 C 520.265625 354.769531 519.609375 357.191406 518.871094 359.59375 C 518.136719 361.992188 517.324219 364.367188 516.441406 366.714844 C 515.554688 369.0625 514.59375 371.382812 513.5625 373.671875 C 512.527344 375.957031 511.425781 378.210938 510.25 380.429688 C 509.074219 382.648438 507.832031 384.828125 506.515625 386.96875 C 505.203125 389.105469 503.824219 391.203125 502.378906 393.253906 C 500.933594 395.308594 499.425781 397.3125 497.851562 399.269531 C 496.28125 401.226562 494.648438 403.128906 492.953125 404.984375 C 491.261719 406.835938 489.511719 408.636719 487.703125 410.378906 C 485.898438 412.121094 484.039062 413.804688 482.125 415.429688 C 480.210938 417.054688 478.25 418.621094 476.234375 420.121094 C 474.222656 421.621094 472.167969 423.058594 470.0625 424.429688 C 467.960938 425.800781 465.816406 427.101562 463.628906 428.335938 C 461.445312 429.574219 459.222656 430.738281 456.964844 431.832031 C 454.703125 432.925781 452.414062 433.949219 450.089844 434.898438 C 447.765625 435.847656 445.414062 436.722656 443.035156 437.523438 C 440.65625 438.324219 438.253906 439.050781 435.828125 439.699219 C 433.402344 440.347656 430.960938 440.921875 428.5 441.414062 C 426.039062 441.910156 423.5625 442.324219 421.078125 442.664062 C 418.589844 443 416.09375 443.261719 413.589844 443.441406 C 411.085938 443.621094 408.578125 443.722656 406.066406 443.742188 C 403.558594 443.765625 401.050781 443.707031 398.542969 443.570312 C 396.035156 443.433594 393.535156 443.214844 391.042969 442.921875 C 388.550781 442.625 386.070312 442.25 383.601562 441.796875 C 381.132812 441.347656 378.679688 440.816406 376.242188 440.210938 C 373.808594 439.601562 371.394531 438.917969 369 438.15625 C 366.609375 437.398438 364.242188 436.5625 361.902344 435.652344 C 359.5625 434.742188 357.253906 433.761719 354.976562 432.703125 C 352.699219 431.648438 350.457031 430.519531 348.25 429.324219 C 346.042969 428.125 343.878906 426.859375 341.753906 425.523438 C 339.625 424.191406 337.542969 422.789062 335.507812 421.324219 C 333.46875 419.855469 331.480469 418.328125 329.539062 416.734375 Z M 371.925781 401.832031 L 391.113281 401.832031 C 391.3125 401.832031 391.503906 401.867188 391.683594 401.945312 C 391.867188 402.019531 392.027344 402.128906 392.167969 402.265625 C 392.308594 402.40625 392.414062 402.566406 392.492188 402.75 C 392.566406 402.933594 392.605469 403.125 392.605469 403.320312 L 392.605469 408.445312 C 392.605469 408.640625 392.566406 408.832031 392.492188 409.015625 C 392.414062 409.199219 392.308594 409.359375 392.167969 409.5 C 392.027344 409.636719 391.867188 409.746094 391.683594 409.820312 C 391.503906 409.898438 391.3125 409.933594 391.113281 409.933594 L 373.320312 409.933594 C 373.410156 409.28125 373.410156 408.628906 373.320312 407.980469 C 373.386719 406.875 373.257812 405.796875 372.9375 404.738281 C 372.617188 403.683594 372.125 402.710938 371.457031 401.832031 Z M 403.503906 465.828125 L 407.417969 465.828125 C 468.710938 465.828125 525.816406 491.164062 543.140625 526.003906 L 595.585938 631.453125 C 563.730469 640.21875 531.421875 646.746094 498.664062 651.035156 C 465.902344 655.324219 433.003906 657.335938 399.964844 657.074219 C 368.703125 656.871094 337.585938 654.628906 306.621094 650.339844 C 275.652344 646.054688 245.101562 639.757812 214.960938 631.453125 L 267.3125 526.097656 C 284.640625 491.164062 341.742188 465.828125 403.039062 465.828125 Z M 403.503906 465.828125 " fill-opacity="1" fill-rule="nonzero"/></g></svg>