<svg xmlns="http://www.w3.org/2000/svg" xmlns:xlink="http://www.w3.org/1999/xlink" width="1080" zoomAndPan="magnify" viewBox="0 0 810 809.999993" height="1080" preserveAspectRatio="xMidYMid meet" version="1.0"><defs><clipPath id="14d5a22e29"><path d="M 229.628906 138.816406 L 580.628906 138.816406 L 580.628906 671.046875 L 229.628906 671.046875 Z M 229.628906 138.816406 " clip-rule="nonzero"/></clipPath></defs><rect x="-81" width="972" fill="#ffffff" y="-80.999999" height="971.999992" fill-opacity="1"/><rect x="-81" width="972" fill="#000000" y="-80.999999" height="971.999992" fill-opacity="1"/><g clip-path="url(#14d5a22e29)"><path fill="#ff7bac" d="M 299.828125 311.320312 C 299.828125 326.746094 302.515625 340.945312 307.90625 353.917969 C 313.28125 366.890625 320.714844 378.113281 330.191406 387.578125 C 339.671875 397.042969 350.78125 404.46875 363.535156 409.84375 C 376.289062 415.222656 390.039062 417.90625 404.777344 417.90625 C 419.523438 417.90625 433.265625 415.222656 446.027344 409.84375 C 458.773438 404.46875 469.949219 397.042969 479.546875 387.578125 C 489.136719 378.113281 496.683594 366.890625 502.183594 353.917969 C 507.679688 340.945312 510.433594 326.746094 510.433594 311.320312 C 510.433594 295.894531 507.679688 281.691406 502.183594 268.722656 C 496.683594 255.746094 489.136719 244.53125 479.546875 235.058594 C 469.949219 225.59375 458.773438 218.179688 446.027344 212.800781 C 433.265625 207.425781 419.523438 204.738281 404.777344 204.738281 C 390.039062 204.738281 376.289062 207.425781 363.535156 212.800781 C 350.78125 218.179688 339.671875 225.59375 330.191406 235.058594 C 320.714844 244.53125 313.28125 255.746094 307.90625 268.722656 C 302.515625 281.691406 299.828125 295.894531 299.828125 311.320312 Z M 517.804688 592.859375 L 439.527344 592.859375 L 439.527344 671.046875 L 371.789062 671.046875 L 371.789062 592.859375 L 293.164062 592.859375 L 293.164062 524.84375 L 371.789062 524.84375 L 371.789062 481.015625 C 351.660156 477.28125 332.9375 470.265625 315.628906 459.980469 C 298.308594 449.695312 283.273438 437.070312 270.523438 422.113281 C 257.765625 407.15625 247.757812 390.207031 240.511719 371.273438 C 233.257812 352.34375 229.628906 332.359375 229.628906 311.320312 C 229.628906 287.714844 234.308594 265.449219 243.667969 244.53125 C 253.027344 223.613281 265.660156 205.320312 281.578125 189.65625 C 297.488281 174.003906 316.089844 161.609375 337.386719 152.492188 C 358.675781 143.378906 381.140625 138.820312 404.777344 138.820312 C 428.414062 138.820312 450.878906 143.378906 472.175781 152.492188 C 493.460938 161.609375 512.125 174.003906 528.160156 189.65625 C 544.183594 205.320312 556.9375 223.613281 566.417969 244.53125 C 575.894531 265.449219 580.632812 287.714844 580.632812 311.320312 C 580.632812 332.359375 577 352.285156 569.753906 371.097656 C 562.5 389.914062 552.554688 406.804688 539.914062 421.765625 C 527.28125 436.722656 512.363281 449.34375 495.164062 459.628906 C 477.96875 469.917969 459.417969 476.929688 439.527344 480.664062 L 439.527344 524.84375 L 517.804688 524.84375 L 517.804688 592.859375 " fill-opacity="1" fill-rule="nonzero"/></g></svg>