<svg xmlns="http://www.w3.org/2000/svg" xmlns:xlink="http://www.w3.org/1999/xlink" width="1080" zoomAndPan="magnify" viewBox="0 0 810 809.999993" height="1080" preserveAspectRatio="xMidYMid meet" version="1.0"><defs><clipPath id="b10aef61ef"><path d="M 181 161.859375 L 646.933594 161.859375 L 646.933594 630 L 181 630 Z M 181 161.859375 " clip-rule="nonzero"/></clipPath></defs><rect x="-81" width="972" fill="#ffffff" y="-80.999999" height="971.999992" fill-opacity="1"/><rect x="-81" width="972" fill="#000000" y="-80.999999" height="971.999992" fill-opacity="1"/><g clip-path="url(#b10aef61ef)"><path fill="#0188e0" d="M 556.308594 216.988281 L 476.894531 296.308594 C 404.421875 242.472656 301.382812 248.398438 235.617188 314.085938 C 163.386719 386.289062 163.386719 503.53125 235.617188 575.734375 C 307.847656 647.933594 425.253906 647.933594 497.484375 575.734375 C 563.25 510.039062 569.15625 407.070312 515.28125 334.652344 L 592.621094 257.363281 L 592.621094 330.128906 L 646.894531 330.128906 L 646.894531 161.914062 L 478.007812 163.476562 L 478.570312 217.703125 Z M 274.007812 537.382812 C 222.925781 486.34375 222.925781 403.472656 274.007812 352.425781 C 325.085938 301.390625 408.011719 301.390625 459.09375 352.425781 C 510.175781 403.472656 510.175781 486.34375 459.09375 537.382812 C 408.011719 588.429688 325.085938 588.429688 274.007812 537.382812 Z M 274.007812 537.382812 " fill-opacity="1" fill-rule="evenodd"/></g></svg>