<svg xmlns="http://www.w3.org/2000/svg" xmlns:xlink="http://www.w3.org/1999/xlink" width="1080" zoomAndPan="magnify" viewBox="0 0 810 809.999993" height="1080" preserveAspectRatio="xMidYMid meet" version="1.0"><defs><clipPath id="9023bb76ff"><path d="M 179 224.433594 L 743.199219 224.433594 L 743.199219 585.933594 L 179 585.933594 Z M 179 224.433594 " clip-rule="nonzero"/></clipPath><clipPath id="b53772b783"><path d="M 66.699219 310 L 308 310 L 308 329 L 66.699219 329 Z M 66.699219 310 " clip-rule="nonzero"/></clipPath></defs><rect x="-81" width="972" fill="#ffffff" y="-80.999999" height="971.999992" fill-opacity="1"/><rect x="-81" width="972" fill="#000000" y="-80.999999" height="971.999992" fill-opacity="1"/><g clip-path="url(#9023bb76ff)"><path fill="#ffffff" d="M 738.769531 405.058594 L 684.554688 308.992188 L 684.394531 308.722656 C 679.210938 300.230469 670.464844 295.164062 661.003906 295.164062 L 594.515625 295.164062 L 599.171875 261.4375 C 600.460938 252.117188 597.652344 242.699219 591.472656 235.605469 C 585.289062 228.507812 576.34375 224.4375 566.929688 224.4375 L 245.539062 224.4375 C 240.585938 224.4375 236.566406 228.457031 236.566406 233.410156 C 236.566406 238.363281 240.585938 242.382812 245.539062 242.382812 L 566.933594 242.382812 C 571.21875 242.382812 575.125 244.164062 577.9375 247.390625 C 580.753906 250.621094 581.980469 254.734375 581.394531 258.976562 L 576.394531 295.160156 L 576.117188 295.160156 L 546.601562 503.402344 L 546.574219 503.636719 C 545.925781 509.28125 545.492188 513.578125 545.203125 516.832031 L 387.269531 516.832031 C 382.929688 488.121094 358.082031 466.039062 328.179688 466.039062 C 298.277344 466.039062 273.433594 488.121094 269.089844 516.832031 L 211.667969 516.832031 C 207.382812 516.832031 203.476562 515.054688 200.660156 511.824219 C 197.847656 508.597656 196.621094 504.480469 197.207031 500.238281 L 203.320312 455.980469 C 204 451.070312 200.566406 446.535156 195.660156 445.863281 C 190.734375 445.183594 186.21875 448.617188 185.542969 453.527344 L 179.429688 497.785156 C 178.140625 507.109375 180.949219 516.523438 187.128906 523.621094 C 193.3125 530.714844 202.257812 534.785156 211.671875 534.785156 L 269.09375 534.785156 C 273.4375 563.496094 298.28125 585.574219 328.183594 585.574219 C 358.085938 585.574219 382.929688 563.496094 387.273438 534.785156 L 575.015625 534.785156 C 579.355469 563.496094 604.203125 585.574219 634.105469 585.574219 C 664.007812 585.574219 688.851562 563.496094 693.195312 534.785156 L 704.828125 534.785156 C 720.074219 534.785156 732.515625 521.601562 732.816406 505.269531 L 743.222656 422.597656 L 743.292969 421.476562 C 743.292969 415.628906 741.730469 409.957031 738.773438 405.0625 Z M 369.992188 525.804688 C 369.992188 528.886719 369.648438 531.890625 369.011719 534.78125 C 364.894531 553.539062 348.15625 567.621094 328.175781 567.621094 C 308.199219 567.621094 291.460938 553.535156 287.34375 534.78125 C 286.707031 531.886719 286.363281 528.886719 286.363281 525.804688 C 286.363281 522.726562 286.707031 519.722656 287.34375 516.832031 C 291.460938 498.074219 308.203125 483.992188 328.175781 483.992188 C 348.152344 483.992188 364.890625 498.078125 369.011719 516.832031 C 369.648438 519.726562 369.992188 522.726562 369.992188 525.804688 Z M 675.917969 525.804688 C 675.917969 528.886719 675.574219 531.890625 674.9375 534.78125 C 670.816406 553.539062 654.078125 567.621094 634.101562 567.621094 C 614.121094 567.621094 597.382812 553.535156 593.261719 534.78125 C 592.628906 531.886719 592.285156 528.886719 592.285156 525.804688 C 592.285156 522.726562 592.628906 519.722656 593.261719 516.832031 C 597.382812 498.074219 614.121094 483.992188 634.101562 483.992188 C 654.078125 483.992188 670.816406 498.078125 674.9375 516.832031 C 675.574219 519.726562 675.917969 522.726562 675.917969 525.804688 Z M 714.9375 503.542969 L 714.867188 504.664062 C 714.867188 511.371094 710.359375 516.832031 704.824219 516.832031 L 693.191406 516.832031 C 688.847656 488.121094 664.003906 466.039062 634.101562 466.039062 C 604.199219 466.039062 579.351562 488.121094 575.011719 516.832031 L 563.898438 516.832031 L 592.039062 313.113281 L 661.007812 313.113281 C 664.125 313.113281 667.105469 314.925781 669.011719 317.96875 L 723.210938 414.007812 L 723.367188 414.273438 C 724.574219 416.246094 725.25 418.554688 725.332031 420.980469 L 714.941406 503.542969 Z M 714.9375 503.542969 " fill-opacity="1" fill-rule="nonzero"/></g><path fill="#ffffff" d="M 660.179688 332.105469 C 657.886719 327.589844 653.3125 324.78125 648.246094 324.78125 L 612 324.78125 C 605.289062 324.78125 599.582031 329.800781 598.71875 336.453125 L 590.886719 396.886719 C 590.394531 400.703125 591.566406 404.554688 594.109375 407.449219 C 596.652344 410.339844 600.316406 412 604.167969 412 L 678.976562 412 C 683.671875 412 687.9375 409.609375 690.390625 405.605469 C 692.84375 401.605469 693.042969 396.71875 690.914062 392.539062 L 660.183594 332.105469 Z M 609.355469 394.050781 L 616.007812 342.734375 L 645.449219 342.734375 L 671.542969 394.050781 Z M 609.355469 394.050781 " fill-opacity="1" fill-rule="nonzero"/><g clip-path="url(#b53772b783)"><path fill="#ffffff" d="M 307.613281 319.085938 C 307.613281 314.128906 303.59375 310.109375 298.640625 310.109375 L 75.6875 310.109375 C 70.734375 310.109375 66.714844 314.128906 66.714844 319.085938 C 66.714844 324.039062 70.734375 328.058594 75.6875 328.058594 L 298.636719 328.058594 C 303.589844 328.058594 307.609375 324.039062 307.609375 319.085938 Z M 307.613281 319.085938 " fill-opacity="1" fill-rule="nonzero"/></g><path fill="#ffffff" d="M 358.972656 361.695312 L 136.023438 361.695312 C 131.066406 361.695312 127.046875 365.714844 127.046875 370.671875 C 127.046875 375.625 131.066406 379.644531 136.023438 379.644531 L 358.96875 379.644531 C 363.925781 379.644531 367.945312 375.625 367.945312 370.671875 C 367.945312 365.714844 363.925781 361.695312 358.96875 361.695312 Z M 358.972656 361.695312 " fill-opacity="1" fill-rule="nonzero"/><path fill="#ffffff" d="M 280.339844 422.257812 C 280.339844 417.300781 276.320312 413.28125 271.363281 413.28125 L 102.96875 413.28125 C 98.015625 413.28125 93.996094 417.300781 93.996094 422.257812 C 93.996094 427.210938 98.015625 431.230469 102.96875 431.230469 L 271.363281 431.230469 C 276.320312 431.230469 280.339844 427.210938 280.339844 422.257812 Z M 280.339844 422.257812 " fill-opacity="1" fill-rule="nonzero"/><path fill="#ffffff" d="M 137.945312 280.34375 L 360.894531 280.34375 C 365.847656 280.34375 369.867188 276.324219 369.867188 271.371094 C 369.867188 266.417969 365.847656 262.398438 360.894531 262.398438 L 137.945312 262.398438 C 132.992188 262.398438 128.972656 266.417969 128.972656 271.371094 C 128.972656 276.324219 132.992188 280.34375 137.945312 280.34375 Z M 137.945312 280.34375 " fill-opacity="1" fill-rule="nonzero"/></svg>